<mxfile host="app.diagrams.net" modified="2022-09-19T13:54:49.680Z" agent="5.0 (Macintosh; Intel Mac OS X 10_15_7) AppleWebKit/537.36 (KHTML, like Gecko) Chrome/103.0.5060.134 Safari/537.36 OPR/89.0.4447.83" etag="jKKNp2xAbyaUw1LLKhCK" version="20.2.3" type="github">
  <diagram id="wAkNv_zMbMzR43Nq87tJ" name="Page-1">
    <mxGraphModel dx="1276" dy="727" grid="1" gridSize="10" guides="1" tooltips="1" connect="1" arrows="1" fold="1" page="1" pageScale="1" pageWidth="827" pageHeight="1169" math="0" shadow="0">
      <root>
        <mxCell id="0" />
        <mxCell id="1" parent="0" />
        <mxCell id="IhcZWadSO6IACjrFC9mP-1" value="&lt;font color=&quot;#994c00&quot;&gt;def&lt;/font&gt; &lt;font color=&quot;#004c99&quot;&gt;func&lt;/font&gt;(&amp;nbsp; &amp;nbsp; &amp;nbsp; &amp;nbsp; &amp;nbsp; &amp;nbsp; &amp;nbsp; &amp;nbsp; &amp;nbsp; &amp;nbsp; &amp;nbsp; &amp;nbsp; &amp;nbsp; &amp;nbsp; &amp;nbsp; &amp;nbsp; &amp;nbsp; &amp;nbsp;):&lt;br&gt;&amp;nbsp; &amp;nbsp;&amp;nbsp;" style="text;html=1;strokeColor=none;fillColor=none;align=left;verticalAlign=middle;whiteSpace=wrap;rounded=0;fontSize=20;fontFamily=Courier New;fontStyle=1" vertex="1" parent="1">
          <mxGeometry x="110" y="250" width="640" height="30" as="geometry" />
        </mxCell>
        <mxCell id="IhcZWadSO6IACjrFC9mP-2" value="" style="ellipse;whiteSpace=wrap;html=1;aspect=fixed;fillColor=#dae8fc;strokeColor=#6c8ebf;" vertex="1" parent="1">
          <mxGeometry x="223" y="243" width="20" height="20" as="geometry" />
        </mxCell>
        <mxCell id="IhcZWadSO6IACjrFC9mP-3" value="" style="ellipse;whiteSpace=wrap;html=1;aspect=fixed;fillColor=#dae8fc;strokeColor=#6c8ebf;" vertex="1" parent="1">
          <mxGeometry x="268" y="243" width="20" height="20" as="geometry" />
        </mxCell>
        <mxCell id="IhcZWadSO6IACjrFC9mP-11" value="" style="ellipse;whiteSpace=wrap;html=1;aspect=fixed;fillColor=#d5e8d4;strokeColor=#82b366;" vertex="1" parent="1">
          <mxGeometry x="380" y="244" width="20" height="20" as="geometry" />
        </mxCell>
        <mxCell id="IhcZWadSO6IACjrFC9mP-13" value="/" style="text;html=1;strokeColor=none;fillColor=none;align=center;verticalAlign=middle;whiteSpace=wrap;rounded=0;sketch=1;fontSize=28;fontColor=#009999;" vertex="1" parent="1">
          <mxGeometry x="226" y="240" width="60" height="28" as="geometry" />
        </mxCell>
        <mxCell id="IhcZWadSO6IACjrFC9mP-14" value="" style="ellipse;whiteSpace=wrap;html=1;aspect=fixed;fillColor=#ffe6cc;strokeColor=#d79b00;" vertex="1" parent="1">
          <mxGeometry x="409" y="244" width="20" height="20" as="geometry" />
        </mxCell>
        <mxCell id="IhcZWadSO6IACjrFC9mP-6" value="&lt;font style=&quot;font-size: 19px;&quot;&gt;=&lt;/font&gt;" style="rounded=0;whiteSpace=wrap;html=1;fillColor=#f5f5f5;fontColor=#333333;strokeColor=none;" vertex="1" parent="1">
          <mxGeometry x="295" y="239" width="65" height="30" as="geometry" />
        </mxCell>
        <mxCell id="IhcZWadSO6IACjrFC9mP-7" value="" style="ellipse;whiteSpace=wrap;html=1;aspect=fixed;fillColor=#ffe6cc;strokeColor=#d79b00;" vertex="1" parent="1">
          <mxGeometry x="299" y="244" width="20" height="20" as="geometry" />
        </mxCell>
        <mxCell id="IhcZWadSO6IACjrFC9mP-9" value="" style="ellipse;whiteSpace=wrap;html=1;aspect=fixed;fillColor=#f8cecc;strokeColor=#b85450;" vertex="1" parent="1">
          <mxGeometry x="336" y="244" width="20" height="20" as="geometry" />
        </mxCell>
        <mxCell id="IhcZWadSO6IACjrFC9mP-12" value="&lt;font color=&quot;#009900&quot; style=&quot;font-size: 36px;&quot;&gt;*&lt;/font&gt;" style="text;html=1;strokeColor=none;fillColor=none;align=center;verticalAlign=middle;whiteSpace=wrap;rounded=0;sketch=1;fontSize=19;" vertex="1" parent="1">
          <mxGeometry x="363" y="240" width="24" height="30" as="geometry" />
        </mxCell>
        <mxCell id="IhcZWadSO6IACjrFC9mP-16" value="" style="ellipse;whiteSpace=wrap;html=1;aspect=fixed;fillColor=#f8cecc;strokeColor=#b85450;" vertex="1" parent="1">
          <mxGeometry x="444" y="244" width="20" height="20" as="geometry" />
        </mxCell>
        <mxCell id="IhcZWadSO6IACjrFC9mP-17" value="=" style="text;html=1;strokeColor=none;fillColor=none;align=center;verticalAlign=middle;whiteSpace=wrap;rounded=0;sketch=1;fontSize=19;fontColor=#1A1A1A;" vertex="1" parent="1">
          <mxGeometry x="427" y="238" width="20" height="30" as="geometry" />
        </mxCell>
        <mxCell id="IhcZWadSO6IACjrFC9mP-18" value="" style="ellipse;whiteSpace=wrap;html=1;aspect=fixed;fillColor=#ffe6cc;strokeColor=#d79b00;" vertex="1" parent="1">
          <mxGeometry x="473" y="244" width="20" height="20" as="geometry" />
        </mxCell>
        <mxCell id="IhcZWadSO6IACjrFC9mP-22" value="" style="ellipse;whiteSpace=wrap;html=1;aspect=fixed;fillColor=#ffe6cc;strokeColor=#d79b00;" vertex="1" parent="1">
          <mxGeometry x="501" y="244" width="20" height="20" as="geometry" />
        </mxCell>
        <mxCell id="IhcZWadSO6IACjrFC9mP-23" value="" style="ellipse;whiteSpace=wrap;html=1;aspect=fixed;fillColor=#f8cecc;strokeColor=#b85450;" vertex="1" parent="1">
          <mxGeometry x="536" y="244" width="20" height="20" as="geometry" />
        </mxCell>
        <mxCell id="IhcZWadSO6IACjrFC9mP-24" value="=" style="text;html=1;strokeColor=none;fillColor=none;align=center;verticalAlign=middle;whiteSpace=wrap;rounded=0;sketch=1;fontSize=19;fontColor=#1A1A1A;" vertex="1" parent="1">
          <mxGeometry x="519" y="238" width="20" height="30" as="geometry" />
        </mxCell>
        <mxCell id="IhcZWadSO6IACjrFC9mP-25" value="" style="ellipse;whiteSpace=wrap;html=1;aspect=fixed;fillColor=#ffe6cc;strokeColor=#d79b00;" vertex="1" parent="1">
          <mxGeometry x="563" y="244" width="20" height="20" as="geometry" />
        </mxCell>
        <mxCell id="IhcZWadSO6IACjrFC9mP-26" value="" style="ellipse;whiteSpace=wrap;html=1;aspect=fixed;fillColor=#e1d5e7;strokeColor=#9673a6;" vertex="1" parent="1">
          <mxGeometry x="619" y="244" width="20" height="20" as="geometry" />
        </mxCell>
        <mxCell id="IhcZWadSO6IACjrFC9mP-27" value="&lt;font style=&quot;font-size: 36px;&quot;&gt;**&lt;/font&gt;" style="text;html=1;strokeColor=none;fillColor=none;align=center;verticalAlign=middle;whiteSpace=wrap;rounded=0;sketch=1;fontSize=19;fontColor=#4C0099;" vertex="1" parent="1">
          <mxGeometry x="592" y="246" width="30" height="17" as="geometry" />
        </mxCell>
        <mxCell id="IhcZWadSO6IACjrFC9mP-28" value="&lt;font style=&quot;font-size: 30px;&quot;&gt;,&lt;/font&gt;" style="text;html=1;strokeColor=none;fillColor=none;align=center;verticalAlign=middle;whiteSpace=wrap;rounded=0;sketch=1;fontSize=19;fontColor=#1A1A1A;" vertex="1" parent="1">
          <mxGeometry x="239" y="240" width="14" height="30" as="geometry" />
        </mxCell>
        <mxCell id="IhcZWadSO6IACjrFC9mP-29" value="&lt;font style=&quot;font-size: 30px;&quot;&gt;,&lt;/font&gt;" style="text;html=1;strokeColor=none;fillColor=none;align=center;verticalAlign=middle;whiteSpace=wrap;rounded=0;sketch=1;fontSize=19;fontColor=#1A1A1A;" vertex="1" parent="1">
          <mxGeometry x="257" y="240" width="14" height="30" as="geometry" />
        </mxCell>
        <mxCell id="IhcZWadSO6IACjrFC9mP-30" value="&lt;font style=&quot;font-size: 30px;&quot;&gt;,&lt;/font&gt;" style="text;html=1;strokeColor=none;fillColor=none;align=center;verticalAlign=middle;whiteSpace=wrap;rounded=0;sketch=1;fontSize=19;fontColor=#1A1A1A;" vertex="1" parent="1">
          <mxGeometry x="284" y="240" width="14" height="30" as="geometry" />
        </mxCell>
        <mxCell id="IhcZWadSO6IACjrFC9mP-31" value="&lt;font style=&quot;font-size: 30px;&quot;&gt;,&lt;/font&gt;" style="text;html=1;strokeColor=none;fillColor=none;align=center;verticalAlign=middle;whiteSpace=wrap;rounded=0;sketch=1;fontSize=19;fontColor=#1A1A1A;" vertex="1" parent="1">
          <mxGeometry x="354" y="240" width="14" height="30" as="geometry" />
        </mxCell>
        <mxCell id="IhcZWadSO6IACjrFC9mP-32" value="&lt;font style=&quot;font-size: 30px;&quot;&gt;,&lt;/font&gt;" style="text;html=1;strokeColor=none;fillColor=none;align=center;verticalAlign=middle;whiteSpace=wrap;rounded=0;sketch=1;fontSize=19;fontColor=#1A1A1A;" vertex="1" parent="1">
          <mxGeometry x="397" y="240" width="14" height="30" as="geometry" />
        </mxCell>
        <mxCell id="IhcZWadSO6IACjrFC9mP-33" value="&lt;font style=&quot;font-size: 30px;&quot;&gt;,&lt;/font&gt;" style="text;html=1;strokeColor=none;fillColor=none;align=center;verticalAlign=middle;whiteSpace=wrap;rounded=0;sketch=1;fontSize=19;fontColor=#1A1A1A;" vertex="1" parent="1">
          <mxGeometry x="460" y="239" width="14" height="30" as="geometry" />
        </mxCell>
        <mxCell id="IhcZWadSO6IACjrFC9mP-34" value="&lt;font style=&quot;font-size: 30px;&quot;&gt;,&lt;/font&gt;" style="text;html=1;strokeColor=none;fillColor=none;align=center;verticalAlign=middle;whiteSpace=wrap;rounded=0;sketch=1;fontSize=19;fontColor=#1A1A1A;" vertex="1" parent="1">
          <mxGeometry x="490" y="240" width="14" height="30" as="geometry" />
        </mxCell>
        <mxCell id="IhcZWadSO6IACjrFC9mP-35" value="&lt;font style=&quot;font-size: 30px;&quot;&gt;,&lt;/font&gt;" style="text;html=1;strokeColor=none;fillColor=none;align=center;verticalAlign=middle;whiteSpace=wrap;rounded=0;sketch=1;fontSize=19;fontColor=#1A1A1A;" vertex="1" parent="1">
          <mxGeometry x="552" y="240" width="14" height="30" as="geometry" />
        </mxCell>
        <mxCell id="IhcZWadSO6IACjrFC9mP-36" value="&lt;font style=&quot;font-size: 30px;&quot;&gt;,&lt;/font&gt;" style="text;html=1;strokeColor=none;fillColor=none;align=center;verticalAlign=middle;whiteSpace=wrap;rounded=0;sketch=1;fontSize=19;fontColor=#1A1A1A;" vertex="1" parent="1">
          <mxGeometry x="581" y="240" width="14" height="30" as="geometry" />
        </mxCell>
      </root>
    </mxGraphModel>
  </diagram>
</mxfile>
